<?xml version="1.0" standalone="no"?>
<!DOCTYPE svg PUBLIC "-//W3C//DTD SVG 20010904//EN"
 "http://www.w3.org/TR/2001/REC-SVG-20010904/DTD/svg10.dtd">
<svg version="1.0" xmlns="http://www.w3.org/2000/svg"
 width="500.000000pt" height="500.000000pt" viewBox="0 0 500.000000 500.000000"
 preserveAspectRatio="xMidYMid meet">

<g transform="translate(0.000000,500.000000) scale(0.100000,-0.100000)"
fill="#000000" stroke="none">
<path d="M0 4825 c0 -100 4 -175 9 -175 5 0 16 -2 23 -5 10 -4 31 19 63 67 26
40 52 75 57 76 4 2 8 8 8 13 0 5 8 17 18 27 31 34 52 62 45 62 -4 0 2 6 12 14
18 13 18 13 -1 25 -18 12 -18 12 0 7 13 -5 28 4 50 26 l32 33 -158 2 -158 2 0
-174z m280 155 c8 -5 11 -10 5 -10 -5 0 -17 5 -25 10 -8 5 -10 10 -5 10 6 0
17 -5 25 -10z m-60 -15 c14 -8 21 -14 15 -14 -5 0 -21 6 -35 14 -14 8 -20 14
-15 14 6 0 21 -6 35 -14z m-90 -65 c8 -5 11 -10 5 -10 -5 0 -17 5 -25 10 -8 5
-10 10 -5 10 6 0 17 -5 25 -10z"/>
<path d="M1540 4973 c-324 -183 -755 -450 -774 -482 -4 -5 -1 -13 5 -17 7 -4
9 -3 6 3 -3 5 8 18 26 28 18 10 82 51 142 90 146 96 445 275 573 342 56 30
102 57 102 59 0 11 -40 -1 -80 -23z"/>
<path d="M1620 4963 c-314 -174 -634 -362 -627 -369 2 -2 86 29 188 70 101 40
267 104 369 141 102 37 188 70 192 74 3 3 9 32 13 64 l7 57 -38 0 c-26 -1 -62
-13 -104 -37z"/>
<path d="M1795 4954 c-3 -25 -4 -48 -2 -50 4 -4 276 84 286 92 2 2 -59 4 -136
4 l-141 0 -7 -46z"/>
<path d="M2933 4885 l2 -119 -289 -83 c-159 -45 -400 -116 -536 -158 -135 -41
-250 -75 -254 -75 -7 0 -3 181 9 385 3 52 1 73 -5 60 -5 -11 -9 -56 -9 -101
-1 -44 -4 -142 -8 -217 l-6 -136 -191 -62 c-105 -34 -299 -99 -430 -145 -132
-46 -243 -84 -248 -84 -4 0 -9 19 -10 43 l-1 42 -6 -49 -6 -48 -144 -54 c-79
-30 -146 -52 -149 -49 -3 3 0 5 6 5 6 0 9 7 6 15 -4 8 -1 15 6 15 9 0 10 3 1
14 -9 10 -8 15 2 19 10 4 11 26 5 108 -10 135 -13 147 -41 151 -12 2 -20 7
-19 12 2 5 -2 13 -10 17 -10 7 -10 9 0 9 8 0 10 5 6 12 -5 8 -2 9 10 5 11 -5
15 -3 10 5 -5 7 0 9 14 6 12 -4 22 -2 22 3 0 5 10 14 22 19 13 5 18 9 11 9 -6
1 -50 -15 -98 -35 -63 -27 -83 -39 -73 -46 9 -7 8 -8 -6 -4 -16 5 -214 -72
-238 -93 -3 -3 -16 -100 -28 -216 -12 -115 -24 -212 -26 -214 -13 -14 -11 26
9 212 13 114 20 206 16 205 -4 -2 -64 -30 -133 -63 l-125 -60 -1 -2072 0
-2073 309 0 c238 0 310 3 314 13 4 9 6 9 6 0 1 -10 381 -13 1865 -13 l1864 0
-11 30 c-11 29 -27 41 -27 20 0 -18 -107 45 -123 73 -13 23 -21 26 -42 21 -17
-4 -32 -1 -44 10 -9 9 -32 21 -49 27 -22 7 -32 17 -32 31 0 15 -5 19 -20 15
-11 -3 -23 -1 -26 4 -3 5 -13 9 -23 9 -10 0 -24 11 -31 25 -9 18 -24 26 -56
31 -30 4 -44 12 -47 25 -3 11 -14 19 -25 19 -11 0 -25 6 -32 14 -9 12 -6 16
22 20 48 7 769 26 779 21 4 -3 9 -2 11 3 1 4 87 1 189 -7 l187 -15 5 -61 c4
-33 9 -112 13 -175 17 -298 24 -65 24 863 l0 1008 -63 -5 c-34 -3 -51 -3 -37
0 86 18 100 25 100 49 0 14 -11 32 -27 44 -51 37 -73 65 -73 91 0 14 -7 34
-15 44 -14 18 -15 18 -15 2 0 -10 -5 -14 -11 -11 -6 4 -8 13 -5 21 3 8 0 13
-7 11 -6 -1 -14 14 -18 33 -13 68 -10 -56 6 -259 9 -107 14 -195 12 -197 -1
-2 -81 22 -177 52 -96 29 -188 54 -206 54 -36 0 -821 -76 -1219 -119 -148 -15
-274 -25 -279 -20 -5 4 -6 23 -2 42 6 30 10 34 31 29 14 -2 25 0 25 6 0 6 9 8
20 5 30 -8 72 5 63 20 -5 9 -3 9 9 -1 8 -7 22 -10 29 -7 8 2 27 7 44 9 16 3
31 10 33 16 2 5 8 10 13 10 6 0 7 -5 3 -11 -4 -8 1 -9 17 -3 13 4 38 8 56 9
18 0 38 6 44 13 7 6 25 12 40 12 29 0 42 19 28 41 -6 11 -11 11 -21 1 -6 -6
-21 -12 -33 -12 -19 1 -19 1 -2 14 15 12 16 14 2 20 -8 3 -27 0 -42 -7 l-26
-12 24 -6 24 -7 -22 -7 c-13 -4 -20 -11 -17 -16 3 -5 1 -9 -4 -9 -13 0 -22 25
-22 56 0 14 -4 22 -10 19 -5 -3 -10 -17 -10 -31 0 -13 -4 -24 -10 -24 -5 0
-10 10 -10 23 0 22 -1 21 -13 -3 -17 -33 -61 -35 -65 -2 -2 12 -8 22 -14 22
-6 0 -8 -12 -4 -30 7 -35 -11 -41 -23 -8 l-8 23 -7 -22 c-15 -48 -66 -38 -66
13 0 19 -4 34 -9 34 -5 0 -7 -18 -4 -40 4 -26 2 -40 -6 -40 -6 0 -11 12 -12
28 l-1 27 -10 -27 c-12 -34 -21 -35 -36 -5 -10 21 -11 21 -12 -8 -1 -16 -1
-60 0 -97 1 -43 -3 -68 -9 -68 -6 0 -91 -9 -189 -20 -702 -77 -826 -90 -836
-86 -6 2 6 5 26 5 20 1 39 5 42 10 3 4 17 6 31 3 16 -3 33 2 45 13 12 11 20
13 20 7 0 -7 5 -12 11 -12 5 0 7 5 4 10 -3 6 1 10 9 10 9 0 16 7 16 15 0 12 4
13 18 6 9 -5 39 -7 67 -6 27 2 55 -1 62 -7 9 -7 20 -5 40 8 24 16 163 45 283
59 93 11 170 40 170 64 0 14 -2 14 -10 1 -8 -12 -10 -10 -10 11 0 14 -7 34
-15 45 -14 19 -14 18 -15 -3 0 -13 -4 -23 -10 -23 -5 0 -10 12 -10 26 0 35
-23 26 -31 -12 -6 -27 -7 -27 -8 -4 l-1 24 -16 -22 c-23 -34 -59 -26 -59 12 0
16 -5 31 -10 33 -7 2 -9 -12 -7 -36 3 -34 1 -39 -21 -43 -30 -6 -40 0 -52 27
-8 18 -9 18 -13 -7 -2 -19 -9 -28 -22 -28 -29 0 -33 17 -8 35 l23 16 -30 -3
c-24 -2 -31 -9 -36 -33 -5 -22 -7 -24 -8 -8 -1 31 -21 40 -21 10 0 -28 -27
-44 -44 -27 -8 8 -4 17 13 31 23 19 17 25 -13 13 -9 -3 -16 -15 -16 -26 0 -11
-8 -22 -20 -25 -11 -3 -20 -12 -20 -20 0 -8 -4 -12 -9 -9 -5 3 -7 15 -4 25 3
11 0 28 -6 38 -10 17 -10 17 -11 1 0 -11 -8 -18 -20 -18 -27 0 -25 -17 3 -23
19 -5 19 -5 -3 -4 -21 2 -25 7 -26 35 -1 25 3 32 18 32 11 0 17 4 13 9 -7 12
24 30 45 25 8 -1 29 -6 47 -9 28 -6 34 -4 44 18 10 22 8 37 -11 89 -30 82 -62
146 -67 133 -2 -6 8 -39 22 -75 14 -35 25 -67 25 -72 0 -12 -48 -10 -55 2 -11
18 -64 11 -82 -10 -17 -20 -53 -28 -53 -12 0 5 11 37 25 71 19 45 23 66 16 79
-10 17 -12 15 -15 -10 0 -7 -16 -16 -33 -22 -33 -9 -33 -9 -33 -72 0 -62 -1
-64 -26 -64 -26 0 -26 1 -22 60 l4 60 -29 0 c-22 0 -28 -4 -23 -15 3 -9 0 -15
-9 -15 -8 0 -15 7 -15 16 0 8 -6 22 -14 29 -11 12 -14 8 -20 -23 -3 -20 -6
-48 -6 -61 0 -22 2 -23 46 -16 44 6 45 5 42 -17 -3 -20 -11 -24 -62 -31 -32
-5 -60 -6 -62 -4 -3 3 -8 22 -11 43 -7 44 -45 114 -51 95 -2 -7 6 -40 18 -73
18 -50 20 -62 9 -69 -18 -11 -27 -11 -34 1 -9 15 -73 12 -82 -3 -4 -8 -19 -16
-31 -20 -21 -5 -23 -3 -17 16 4 12 7 32 7 44 0 13 4 20 9 17 5 -3 8 10 8 28
-1 24 -3 27 -6 10 -3 -13 -9 -19 -15 -16 -7 4 -8 2 -4 -4 4 -7 2 -12 -3 -12
-6 0 -11 6 -11 14 0 27 -30 46 -58 39 -15 -3 -28 -10 -30 -15 -6 -15 -31 -8
-42 11 -15 28 -12 41 7 41 14 0 13 3 -5 16 -13 9 -31 13 -45 9 -13 -4 -17 -3
-10 2 26 19 -3 33 -55 26 -28 -3 -49 -10 -46 -14 7 -12 -17 -11 -35 0 -9 6 11
13 60 21 41 7 129 22 196 34 l122 23 4 -76 3 -76 2 78 c1 42 5 77 10 77 4 0
48 7 97 15 392 65 406 66 496 54 100 -14 173 -1 288 51 40 18 105 36 163 45
146 23 137 26 141 -52 l4 -68 -1 71 -1 71 435 62 c239 33 574 79 743 102 l309
41 165 -69 c179 -73 197 -80 171 -63 -42 26 -334 140 -359 140 -34 0 -669 -83
-1111 -145 -175 -25 -325 -45 -334 -45 -16 0 -17 19 -12 228 3 125 2 259 -2
297 -4 39 -8 63 -8 56 -2 -12 -5 -12 -14 -3 -6 6 -10 13 -7 16 6 5 762 137
1134 197 176 29 322 54 324 56 2 1 2 5 0 8 -6 6 -1207 -192 -1401 -231 -28 -6
-28 -5 -30 48 l-2 53 -3 -50 c-5 -56 -20 -73 -41 -44 -9 13 -11 33 -7 63 5 31
2 52 -9 72 -13 24 -15 26 -16 9 0 -11 -7 -31 -16 -43 -14 -20 -14 -24 6 -52
82 -115 89 -274 17 -422 -28 -57 -31 -69 -20 -84 19 -26 16 -58 -7 -87 -23
-29 -74 -44 -94 -27 -11 8 -28 2 -76 -29 -92 -60 -162 -83 -261 -89 -83 -4
-175 13 -203 39 -5 4 -21 -2 -37 -13 -20 -15 -36 -19 -58 -15 -31 7 -36 1 -31
-33 1 -8 8 -22 16 -31 14 -15 10 -18 -43 -27 -145 -25 -294 -45 -299 -39 -4 3
-3 126 2 272 5 146 6 265 3 265 -3 0 -10 -121 -15 -270 -5 -148 -12 -271 -15
-274 -12 -12 -372 -67 -381 -58 -6 6 0 8 16 5 34 -7 33 5 0 17 -17 7 -24 15
-20 25 3 10 -1 15 -12 15 -10 0 -27 7 -38 15 -10 8 -27 15 -36 15 -19 0 -69
46 -60 54 3 3 -2 6 -11 6 -9 0 -23 14 -32 30 -9 18 -23 30 -35 30 -11 0 -20 5
-20 10 0 6 9 10 20 10 24 0 26 13 5 30 -12 10 -18 8 -35 -11 l-19 -24 -1 43
c0 23 -5 42 -10 42 -6 0 -26 16 -45 36 -35 36 -38 61 -6 49 13 -5 14 -4 3 7
-10 10 -16 10 -33 -1 -17 -10 -24 -10 -33 0 -8 9 -8 10 2 5 6 -4 19 -1 27 8
10 10 11 16 4 18 -16 5 538 130 920 208 79 16 146 32 149 35 15 14 -15 12
-136 -12 -73 -14 -135 -23 -138 -20 -8 7 11 515 19 523 7 7 487 121 837 199
140 31 263 58 272 61 16 5 18 -10 21 -173 l2 -178 3 180 2 180 128 26 c70 14
384 76 697 139 314 62 572 115 574 117 14 10 -13 9 -74 -3 -38 -8 -342 -69
-675 -135 -333 -67 -615 -124 -628 -126 l-22 -5 2 278 3 278 260 63 c143 34
440 103 660 153 429 97 439 100 432 106 -5 5 -582 -123 -1016 -227 -183 -43
-335 -79 -337 -79 -2 0 -5 116 -6 258 l-2 257 -6 -260 -5 -260 -210 -53 c-115
-29 -362 -94 -548 -144 -185 -50 -340 -88 -343 -85 -5 5 13 477 19 483 6 6
458 144 767 234 297 86 842 235 1105 302 71 18 122 34 113 36 -17 3 -240 -53
-663 -167 -121 -33 -221 -58 -223 -56 -1 1 -7 54 -11 116 l-9 114 1 -120z
m-1097 -512 c-3 -27 -8 -137 -12 -245 -5 -171 -8 -198 -23 -202 -9 -3 -126
-37 -261 -76 -194 -56 -423 -126 -606 -185 -8 -2 -10 24 -8 88 l3 92 -9 -94
c-5 -52 -11 -94 -12 -95 -25 -14 -144 -43 -155 -39 -12 5 -12 7 -1 14 7 5 -7
6 -32 4 -25 -2 -40 -1 -34 3 11 8 11 68 1 79 -4 3 -7 59 -7 124 0 110 -1 117
-21 122 -12 3 -18 10 -14 16 3 6 1 11 -4 11 -6 0 -11 -3 -11 -7 0 -5 -12 -9
-28 -9 l-27 -1 30 13 c17 7 38 10 49 7 11 -3 16 -1 12 5 -3 6 8 15 24 21 17 5
30 7 30 3 0 -4 4 -2 8 3 9 14 161 73 422 166 274 97 662 227 678 228 11 1 13
-10 8 -46z m1104 -440 l0 -278 -223 -48 c-122 -27 -375 -84 -561 -128 -187
-43 -341 -79 -344 -79 -5 0 5 289 14 431 l6 86 176 48 c211 58 914 243 925
244 4 1 7 -124 7 -276z m-2260 183 c0 -2 -9 -6 -20 -9 -11 -3 -18 -1 -14 4 5
9 34 13 34 5z m-50 -96 c-20 -13 -33 -13 -25 0 3 6 14 10 23 10 15 0 15 -2 2
-10z m-69 -20 c-13 -11 -28 -20 -35 -20 -6 0 3 9 19 20 38 25 47 25 16 0z
m-51 -60 c-8 -5 -19 -10 -25 -10 -5 0 -3 5 5 10 8 5 20 10 25 10 6 0 3 -5 -5
-10z m1306 -87 c-3 -32 -8 -148 -12 -259 l-6 -200 -177 -43 c-97 -24 -318 -82
-491 -128 -377 -102 -357 -97 -345 -86 6 4 11 16 13 26 2 13 -4 17 -28 17 -16
0 -30 -4 -30 -10 0 -5 -4 -10 -9 -10 -5 0 -12 19 -16 43 -4 23 -14 52 -22 65
-13 22 -13 24 6 29 25 6 28 23 4 23 -14 0 -14 2 2 20 16 18 17 22 3 38 -20 22
-28 112 -11 112 9 0 13 -16 13 -45 0 -33 4 -45 15 -45 17 0 20 16 5 25 -5 3
-10 21 -10 40 0 35 -12 45 -58 45 -24 1 -23 2 11 15 44 15 64 31 27 21 -64
-17 -80 -15 -30 4 30 11 61 18 68 15 8 -3 10 0 6 7 -5 8 -1 9 12 4 10 -4 15
-4 11 0 -9 10 64 35 81 29 7 -3 11 -1 8 3 -3 5 9 13 26 20 l30 11 -6 -57 c-8
-83 -17 -269 -12 -257 3 6 10 77 16 160 6 82 13 151 15 153 5 6 463 148 665
207 107 31 200 58 205 60 24 8 27 2 21 -52z m-1597 -180 c-26 -243 -30 -273
-38 -273 -4 0 3 94 15 209 18 181 27 231 38 231 1 0 -6 -75 -15 -167z m504
-61 c4 11 7 11 18 0 8 -7 10 -12 4 -11 -5 1 -23 -3 -38 -9 -35 -15 -48 -15
-24 -1 10 6 14 15 10 22 -4 8 -1 8 9 -1 13 -10 17 -10 21 0z m-103 -46 c0 -2
-7 -7 -16 -10 -8 -3 -12 -2 -9 4 6 10 25 14 25 6z m-436 -218 c-2 -18 -13
-120 -24 -227 -18 -178 -24 -212 -33 -200 -2 2 6 99 19 214 13 116 23 218 23
228 1 9 5 17 10 17 6 0 8 -15 5 -32z m1603 -239 l-10 -266 -286 -61 c-157 -34
-366 -79 -464 -102 -98 -22 -180 -40 -183 -40 -2 0 -4 8 -4 18 0 11 3 13 8 5
5 -9 21 -8 66 2 68 16 75 21 46 30 -13 4 -19 12 -16 21 3 8 -1 17 -9 21 -9 3
-14 12 -13 21 2 12 -6 16 -29 18 -29 1 -32 -2 -36 -30 -3 -25 -4 -23 -5 12 -1
24 2 41 7 38 5 -4 16 -3 25 0 12 5 14 10 6 20 -7 7 -17 11 -24 8 -12 -4 -10
38 10 251 l5 60 272 73 c266 71 641 169 643 168 0 -1 -4 -121 -9 -267z m-1017
41 c0 -5 -6 -10 -12 -10 -9 0 -8 -4 2 -10 8 -5 11 -10 5 -10 -5 0 -17 5 -25
10 -13 9 -13 11 0 20 19 13 30 13 30 0z m97 -472 c-3 -8 -6 -5 -6 6 -1 11 2
17 5 13 3 -3 4 -12 1 -19z m2083 -118 l0 -120 -42 0 c-36 0 -39 2 -25 13 24
17 35 65 25 110 -6 30 -4 46 12 77 11 22 23 40 25 40 3 0 5 -54 5 -120z
m-1973 74 c-3 -3 -12 -4 -19 -1 -8 3 -5 6 6 6 11 1 17 -2 13 -5z m-84 -21 c-7
-2 -19 -2 -25 0 -7 3 -2 5 12 5 14 0 19 -2 13 -5z m167 -97 c0 -3 -4 -8 -10
-11 -5 -3 -10 -1 -10 4 0 6 5 11 10 11 6 0 10 -2 10 -4z m1733 -93 c-7 -2 -21
-2 -30 0 -10 3 -4 5 12 5 17 0 24 -2 18 -5z m-1440 -230 c-7 -2 -21 -2 -30 0
-10 3 -4 5 12 5 17 0 24 -2 18 -5z m-20 -40 c-7 -2 -19 -2 -25 0 -7 3 -2 5 12
5 14 0 19 -2 13 -5z m137 -3 c-34 -11 -60 -11 -35 0 11 5 29 8 40 8 16 0 15
-2 -5 -8z m-197 -7 c-7 -2 -19 -2 -25 0 -7 3 -2 5 12 5 14 0 19 -2 13 -5z
m247 -40 c0 -2 -8 -3 -17 -1 -10 1 -25 -2 -33 -7 -13 -7 -13 -6 -2 7 11 14 52
15 52 1z m-52 -36 c6 -5 12 -17 12 -28 0 -20 -25 -25 -49 -10 -9 6 -22 6 -33
0 -28 -15 -21 -29 15 -29 18 0 41 -6 52 -13 24 -19 14 -60 -20 -75 -45 -21
-105 -13 -105 13 0 21 19 28 36 14 11 -9 20 -9 40 0 31 14 23 31 -14 31 -44 0
-56 15 -53 63 2 33 83 56 119 34z m48 -9 c-1 -13 -6 -22 -9 -20 -7 2 -7 10 0
30 8 20 13 14 9 -10z m154 2 c12 -8 9 -10 -12 -10 -15 0 -30 5 -33 10 -8 13
25 13 45 0z m-363 -42 l-35 -42 29 -43 c27 -39 28 -43 10 -43 -10 0 -28 12
-39 27 -17 23 -22 25 -36 14 -9 -7 -16 -22 -16 -32 0 -11 -7 -19 -17 -19 -16
0 -18 10 -16 77 1 70 3 78 21 81 19 3 20 -1 15 -32 -5 -31 -3 -35 15 -33 11 0
18 5 15 10 -7 12 25 57 50 67 39 16 39 11 4 -32z m3680 26 c-3 -3 -12 -4 -19
-1 -8 3 -5 6 6 6 11 1 17 -2 13 -5z m-3341 -26 c-2 -19 -11 -24 -52 -29 -49
-6 -67 2 -57 27 5 13 31 20 85 23 24 1 27 -3 24 -21z m64 -19 c0 -5 -7 -9 -15
-9 -8 0 -15 7 -15 15 0 8 -4 15 -10 15 -5 0 -10 5 -10 10 0 6 11 3 25 -6 14
-9 25 -20 25 -25z m2954 -125 c100 -31 182 -57 184 -59 5 -4 54 -676 50 -680
-2 -3 -88 12 -191 32 l-186 37 -771 -48 c-425 -26 -773 -46 -775 -44 -2 1 -5
150 -7 330 -1 179 -6 324 -10 321 -5 -2 -8 -150 -8 -327 l0 -324 -22 -6 c-13
-3 -48 -5 -78 -4 l-55 1 45 7 c25 4 36 8 25 9 -26 2 -63 23 -65 36 -1 6 -18
15 -38 20 -36 10 -48 32 -27 48 5 4 -6 5 -26 1 -22 -3 -39 -2 -43 5 -4 6 0 11
11 11 10 1 -12 15 -49 33 -72 34 -84 47 -43 47 14 0 25 5 25 10 0 15 -32 12
-54 -5 -23 -17 -46 -20 -46 -5 0 5 7 7 15 4 11 -4 15 0 15 16 0 16 -4 20 -15
16 -8 -3 -30 3 -48 14 -17 11 -40 23 -49 26 -22 8 -24 24 -3 24 8 0 15 5 15
10 0 6 -2 10 -4 10 -2 0 -11 3 -20 6 -11 4 -16 0 -16 -12 0 -15 -4 -14 -27 8
-16 14 -34 23 -40 21 -7 -3 -13 0 -13 5 0 6 6 13 13 15 6 3 -2 8 -18 12 -18 4
-35 16 -40 28 -6 14 -19 22 -35 23 -59 2 -65 3 -52 16 17 17 15 38 -5 38 -9 0
-31 11 -49 25 -25 19 -45 25 -85 25 -70 0 -59 6 26 15 39 3 79 8 90 11 16 4
693 85 830 99 655 70 1430 152 1469 154 11 0 101 -24 200 -55z m-2487 5 c-1
-33 -3 -37 -13 -25 -15 22 -24 20 -24 -4 0 -11 -4 -20 -10 -20 -11 0 -14 73
-3 83 3 4 17 7 29 7 20 0 23 -5 21 -41z m-111 3 c-3 10 -1 20 5 24 17 10 19 0
5 -39 -15 -46 -26 -57 -26 -28 0 12 -4 20 -8 17 -5 -3 -9 9 -9 25 l0 31 20
-23 c12 -16 17 -18 13 -7z m-67 -24 c-1 -41 -1 -42 -11 -15 -5 15 -7 34 -4 42
10 27 16 16 15 -27z m-87 -5 c-5 -59 -10 -63 -11 -10 -1 26 3 47 7 47 4 0 6
-17 4 -37z m-62 -9 c0 -17 -5 -24 -20 -24 -23 0 -27 -16 -5 -23 11 -4 10 -4
-2 -3 -27 2 -27 66 -1 66 12 0 16 4 12 12 -4 7 -3 8 4 4 7 -4 12 -18 12 -32z
m118 -2 c2 -18 -1 -32 -6 -32 -5 0 -8 11 -7 25 2 17 -2 25 -11 25 -9 0 -12 5
-9 11 12 19 30 3 33 -29z m-274 16 c-4 -7 -8 -28 -7 -48 0 -32 0 -33 -4 -5 -5
27 -6 28 -13 10 -8 -19 -9 -19 -9 2 -1 12 6 29 15 37 18 19 28 21 18 4z m69
-4 c9 10 17 14 18 9 4 -45 3 -73 -3 -73 -5 0 -8 11 -8 25 0 34 -20 32 -21 -2
0 -16 -3 -22 -6 -15 -2 6 -9 12 -15 12 -6 0 -8 -7 -4 -15 3 -8 1 -15 -4 -15
-17 0 -11 28 8 39 16 10 16 10 -1 11 -15 0 -15 3 -5 20 11 17 14 18 18 4 6
-15 8 -15 23 0z m120 -6 c-6 -7 -13 -22 -16 -33 -3 -13 -5 -10 -6 12 0 17 5
33 12 36 17 6 22 0 10 -15z m-243 -3 c0 -8 -4 -15 -10 -15 -5 0 -10 -15 -11
-32 0 -18 -3 -27 -6 -20 -7 19 6 82 17 82 6 0 10 -7 10 -15z m-136 -11 c9 -3
16 -11 16 -16 0 -6 -7 -5 -15 2 -21 17 -33 4 -38 -40 -4 -34 -4 -34 -5 7 -1
25 3 43 11 46 6 3 13 6 14 6 1 1 8 -2 17 -5z m433 -16 c-3 -8 -6 -5 -6 6 -1
11 2 17 5 13 3 -3 4 -12 1 -19z m-357 -15 c0 -11 -3 -14 -8 -7 -4 6 -14 14
-22 17 -10 4 -8 6 8 6 15 1 22 -5 22 -16z m73 -3 c3 -11 1 -18 -4 -14 -5 3 -9
12 -9 20 0 20 7 17 13 -6z m-301 -12 c-7 -7 -12 -8 -12 -2 0 6 3 14 7 17 3 4
9 5 12 2 2 -3 -1 -11 -7 -17z m67 -15 c-1 -23 -2 -24 -6 -6 -2 12 -12 24 -21
26 -12 3 -10 5 6 6 18 1 22 -4 21 -26z m-89 13 c0 -2 -9 -6 -20 -9 -11 -3 -18
-1 -14 4 5 9 34 13 34 5z m720 -66 c-24 -15 -36 -11 -14 4 10 8 21 12 24 10 2
-3 -2 -9 -10 -14z m-323 -52 c-2 -13 -4 -5 -4 17 -1 22 1 32 4 23 2 -10 2 -28
0 -40z m156 5 c-7 -2 -21 -2 -30 0 -10 3 -4 5 12 5 17 0 24 -2 18 -5z m74 -29
c-3 -3 -12 -4 -19 -1 -8 3 -5 6 6 6 11 1 17 -2 13 -5z m120 -10 c-3 -3 -12 -4
-19 -1 -8 3 -5 6 6 6 11 1 17 -2 13 -5z m-358 -219 c-14 -333 -17 -349 -12
-65 5 238 8 289 18 278 2 -2 -1 -97 -6 -213z m521 95 c0 -5 -5 -10 -11 -10 -5
0 -7 5 -4 10 3 6 8 10 11 10 2 0 4 -4 4 -10z m-2034 -284 c3 -19 4 -38 1 -43
-3 -4 -8 -80 -12 -168 -7 -167 -35 -532 -53 -685 l-7 -55 -43 -3 -44 -3 4 103
c1 57 8 107 13 111 6 6 6 10 -2 14 -7 2 -13 14 -12 26 0 21 1 21 9 2 l9 -20 0
20 c1 11 8 79 16 150 8 72 21 195 30 275 20 188 33 260 51 288 20 31 32 28 40
-12z m4496 -73 l198 -38 5 -30 c2 -16 12 -129 20 -250 9 -121 20 -267 24 -325
5 -58 7 -107 5 -109 -2 -2 -99 3 -216 12 -171 12 -273 14 -518 7 -300 -9 -666
-10 -582 -3 23 2 42 8 42 14 0 5 -11 7 -25 3 -14 -3 -25 -2 -25 4 0 5 -13 15
-29 20 -16 6 -32 19 -36 31 -3 11 -15 23 -26 26 -10 4 -19 11 -19 16 0 5 -7 9
-16 9 -8 0 -25 5 -37 12 -12 7 -28 13 -35 14 -8 1 -22 10 -31 18 -10 9 -23 16
-29 16 -7 0 -12 6 -12 13 0 7 -9 17 -20 22 -102 51 -136 72 -165 101 -19 19
-41 34 -48 34 -8 0 -19 11 -25 24 -8 17 -22 27 -48 32 -26 5 -32 9 -22 16 13
9 5 17 -19 21 -23 3 -33 34 -39 121 -7 96 -7 96 16 96 13 0 143 9 289 20 414
31 954 69 1086 76 66 4 122 8 124 10 7 7 11 6 213 -33z m-4437 -190 c-3 -104
-9 -189 -13 -191 -4 -1 -6 -17 -4 -35 2 -19 -1 -81 -7 -138 -7 -57 -14 -133
-16 -169 -9 -129 -14 -150 -37 -150 -18 0 -19 5 -14 48 3 26 10 101 16 167 13
143 58 564 66 618 12 76 15 32 9 -150z m285 -25 c-1 -126 2 -162 11 -160 7 2
40 6 72 9 47 4 59 3 55 -8 -3 -9 -30 -17 -74 -23 l-70 -8 -12 -152 c-7 -83
-15 -186 -19 -229 -5 -68 -8 -77 -25 -77 -19 0 -20 5 -14 52 3 29 13 139 21
243 9 105 22 257 30 339 8 82 15 155 15 162 0 8 2 14 5 14 3 0 5 -73 5 -162z
m2183 155 c-7 -2 -19 -2 -25 0 -7 3 -2 5 12 5 14 0 19 -2 13 -5z m216 -45 c-1
-18 -3 -25 -6 -16 -3 12 -19 21 -46 25 l-42 8 45 6 c25 3 46 7 48 7 1 1 1 -13
1 -30z m-1252 0 c-3 -8 -6 -5 -6 6 -1 11 2 17 5 13 3 -3 4 -12 1 -19z m1250
-75 c-3 -10 -5 -4 -5 12 0 17 2 24 5 18 2 -7 2 -21 0 -30z m-2330 -10 c-3 -10
-5 -4 -5 12 0 17 2 24 5 18 2 -7 2 -21 0 -30z m1080 -70 c-2 -21 -4 -6 -4 32
0 39 2 55 4 38 2 -18 2 -50 0 -70z m-10 -220 c-2 -16 -4 -5 -4 22 0 28 2 40 4
28 2 -13 2 -35 0 -50z m-1610 25 c-3 -7 -5 -2 -5 12 0 14 2 19 5 13 2 -7 2
-19 0 -25z m529 15 c-3 -10 -8 -45 -11 -78 -3 -33 -8 -70 -11 -82 -3 -16 0
-23 11 -23 17 0 21 -16 4 -22 -7 -2 -7 -17 1 -48 10 -38 9 -54 -7 -103 -11
-32 -23 -59 -28 -60 -14 -3 -7 197 12 321 10 61 21 112 26 112 5 0 6 -8 3 -17z
m3067 -350 c-7 -2 -21 -2 -30 0 -10 3 -4 5 12 5 17 0 24 -2 18 -5z m70 0 c-7
-2 -19 -2 -25 0 -7 3 -2 5 12 5 14 0 19 -2 13 -5z m-3096 -125 c-2 -13 -4 -5
-4 17 -1 22 1 32 4 23 2 -10 2 -28 0 -40z m-10 -130 c-2 -13 -4 -5 -4 17 -1
22 1 32 4 23 2 -10 2 -28 0 -40z"/>
<path d="M943 4040 c0 -30 2 -43 4 -27 2 15 2 39 0 55 -2 15 -4 2 -4 -28z"/>
<path d="M683 4004 c4 -4 -3 -14 -15 -21 l-23 -14 23 6 c14 4 22 2 22 -6 0 -7
8 -5 21 7 17 15 22 16 29 4 5 -8 12 -11 16 -7 4 4 -1 14 -12 21 -10 8 -20 10
-22 5 -2 -5 -13 -4 -25 2 -12 7 -18 8 -14 3z"/>
<path d="M933 3905 c0 -33 2 -45 4 -27 2 18 2 45 0 60 -2 15 -4 0 -4 -33z"/>
<path d="M901 3844 c0 -11 3 -14 6 -6 3 7 2 16 -1 19 -3 4 -6 -2 -5 -13z"/>
<path d="M795 3581 c-3 -5 0 -13 6 -17 7 -4 9 -3 5 4 -3 5 0 13 6 15 9 4 10 6
1 6 -6 1 -14 -3 -18 -8z"/>
<path d="M705 3520 c-3 -5 -1 -10 4 -10 6 0 11 5 11 10 0 6 -2 10 -4 10 -3 0
-8 -4 -11 -10z"/>
<path d="M873 3460 c0 -30 2 -43 4 -27 2 15 2 39 0 55 -2 15 -4 2 -4 -28z"/>
<path d="M863 3325 c0 -22 2 -30 4 -17 2 12 2 30 0 40 -3 9 -5 -1 -4 -23z"/>
<path d="M887 3303 c-4 -3 -6 -36 -5 -72 l1 -66 7 70 c7 76 7 78 -3 68z"/>
<path d="M720 3230 c0 -5 18 -10 39 -10 22 0 42 -5 44 -12 3 -7 6 -3 6 10 1
20 -4 22 -44 22 -25 0 -45 -4 -45 -10z"/>
<path d="M853 3200 c0 -25 2 -35 4 -22 2 12 2 32 0 45 -2 12 -4 2 -4 -23z"/>
<path d="M811 3164 c0 -11 3 -14 6 -6 3 7 2 16 -1 19 -3 4 -6 -2 -5 -13z"/>
<path d="M871 2874 c0 -11 3 -14 6 -6 3 7 2 16 -1 19 -3 4 -6 -2 -5 -13z"/>
<path d="M2140 1894 c0 -9 5 -14 12 -12 18 6 21 28 4 28 -9 0 -16 -7 -16 -16z"/>
<path d="M1815 1840 c-3 -5 1 -10 10 -10 9 0 13 5 10 10 -3 6 -8 10 -10 10 -2
0 -7 -4 -10 -10z"/>
<path d="M0 4598 l0 -43 22 33 c18 28 19 35 7 43 -24 15 -29 10 -29 -33z"/>
<path d="M982 4550 c0 -19 2 -27 5 -17 2 9 2 25 0 35 -3 9 -5 1 -5 -18z"/>
<path d="M973 4450 c0 -30 2 -43 4 -27 2 15 2 39 0 55 -2 15 -4 2 -4 -28z"/>
<path d="M725 4470 c-3 -6 1 -7 9 -4 18 7 21 14 7 14 -6 0 -13 -4 -16 -10z"/>
<path d="M629 4392 c11 -8 11 -10 0 -15 -8 -4 -1 -5 14 -4 15 1 28 7 28 12 0
6 -13 11 -28 13 -20 2 -24 0 -14 -6z"/>
<path d="M963 4310 c0 -30 2 -43 4 -27 2 15 2 39 0 55 -2 15 -4 2 -4 -28z"/>
<path d="M2480 3200 c-62 -13 -156 -62 -211 -110 -167 -143 -210 -392 -93
-529 39 -45 102 -86 149 -95 l30 -7 0 56 c-1 58 -18 92 -34 66 -6 -9 -15 -11
-27 -6 -11 5 -23 7 -28 6 -5 -1 -19 6 -31 16 -11 10 -4 1 18 -19 22 -21 46
-38 53 -38 16 0 19 -26 3 -35 -5 -4 -29 6 -51 22 -22 15 -50 33 -61 40 -33 19
-29 69 6 72 4 0 18 8 32 17 20 13 25 24 24 58 -3 95 -35 147 -41 65 -2 -24 -9
-44 -16 -47 -10 -3 -13 11 -10 62 2 60 4 66 24 66 35 0 54 11 54 29 0 13 19
23 73 39 85 25 278 62 325 62 30 0 32 -2 32 -34 0 -34 -1 -35 -47 -42 -51 -7
-98 -22 -92 -29 2 -2 32 2 66 9 34 8 65 11 68 8 11 -12 5 -143 -7 -147 -7 -3
-76 -16 -153 -30 l-139 -25 -23 22 -23 21 0 -25 c0 -22 -5 -26 -41 -32 -31 -5
-40 -10 -35 -22 4 -10 2 -13 -7 -8 -6 4 -3 -3 8 -15 34 -39 52 -44 90 -25 19
9 45 14 57 11 11 -3 64 3 117 14 85 17 100 23 129 54 23 26 37 33 48 27 12 -7
7 -17 -27 -56 -52 -59 -41 -76 13 -18 29 32 38 49 35 65 -3 12 -7 70 -8 129
-3 111 7 142 40 136 9 -2 25 5 36 15 20 18 20 17 28 -20 9 -40 4 -153 -7 -172
-4 -5 -12 -8 -20 -5 -9 3 -11 20 -8 58 2 30 -1 62 -7 72 -8 15 -10 9 -11 -34
0 -34 -5 -54 -13 -58 -12 -4 -13 -15 -8 -55 1 -4 12 -10 26 -13 14 -4 25 -14
25 -22 0 -13 3 -14 14 -5 40 33 46 230 10 306 -55 116 -211 184 -354 155z
m100 -35 c0 -10 -10 -15 -33 -15 -18 0 -55 -6 -82 -14 -28 -7 -57 -15 -65 -17
-8 -2 -15 2 -15 10 0 20 89 50 148 51 35 0 47 -4 47 -15z m127 -25 c60 -34 92
-75 75 -92 -8 -8 -23 0 -56 30 -25 23 -56 44 -70 48 -29 7 -28 6 -20 28 8 21
11 21 71 -14z m-173 -34 c-3 -7 -26 -16 -51 -20 -80 -11 -83 18 -2 33 50 9 60
6 53 -13z m148 -20 c21 -17 38 -36 38 -42 0 -21 -28 -23 -46 -3 -20 22 -42 26
-24 4 8 -10 9 -19 4 -25 -8 -7 -260 -60 -289 -60 -12 0 -13 79 -2 98 13 19 27
15 74 -24 41 -34 45 -35 79 -24 21 7 39 21 44 35 5 12 16 25 24 28 9 4 16 12
16 20 0 19 21 37 34 30 6 -4 28 -21 48 -37z m-394 -48 c-24 -24 -53 -58 -63
-76 -17 -29 -45 -44 -45 -24 0 35 125 171 142 154 8 -8 -2 -24 -34 -54z m42
-18 c0 -14 -63 -80 -77 -80 -20 0 -16 9 23 57 31 38 54 48 54 23z m-156 -172
c-5 -13 -7 -56 -7 -95 2 -56 -1 -73 -12 -73 -18 0 -29 69 -20 128 8 56 11 62
31 62 12 0 13 -6 8 -22z"/>
<path d="M2456 2891 c-25 -33 -46 -64 -46 -69 0 -5 9 -17 19 -26 18 -16 25
-17 102 -2 78 15 111 26 76 26 -9 0 -48 -5 -86 -12 -56 -9 -72 -9 -85 1 -14
12 -10 20 30 73 25 32 44 61 41 64 -3 3 -26 -22 -51 -55z"/>
<path d="M2350 2907 c0 -10 -19 -43 -41 -73 -23 -30 -40 -57 -37 -59 2 -2 22
19 44 47 55 73 58 78 45 91 -8 8 -11 6 -11 -6z"/>
<path d="M2760 2669 c-19 -28 -51 -65 -72 -82 -37 -30 -48 -47 -28 -47 27 0
150 139 150 169 0 22 -16 9 -50 -40z"/>
<path d="M1036 2641 c-4 -5 3 -7 14 -4 23 6 26 13 6 13 -8 0 -17 -4 -20 -9z"/>
<path d="M2050 2627 c0 -13 32 -111 39 -119 3 -4 11 -4 17 0 8 5 0 27 -22 67
-19 33 -34 56 -34 52z"/>
<path d="M4878 2606 c-49 -11 -88 -24 -88 -27 0 -8 178 36 187 45 8 8 1 7 -99
-18z"/>
<path d="M2527 2567 c-4 -10 -24 -19 -56 -23 -30 -4 -48 -11 -44 -16 6 -11 94
-4 118 9 13 8 13 12 2 27 -12 17 -14 17 -20 3z"/>
<path d="M2547 2507 c-21 -11 -68 -22 -103 -25 -55 -4 -62 -7 -52 -19 9 -11
24 -13 57 -8 59 8 139 34 147 47 13 21 -12 23 -49 5z"/>
<path d="M3762 2313 c1 -58 5 -80 13 -72 13 13 10 113 -5 136 -8 14 -10 -2 -8
-64z"/>
<path d="M4812 2365 c0 -16 2 -22 5 -12 2 9 2 23 0 30 -3 6 -5 -1 -5 -18z"/>
<path d="M3877 2346 c-11 -28 -8 -36 13 -36 23 0 25 9 7 34 -13 18 -14 18 -20
2z"/>
<path d="M3461 2263 l2 -88 -35 -3 c-31 -3 -38 2 -71 43 l-36 47 -3 -54 c-3
-50 -5 -53 -30 -56 l-28 -3 0 80 c0 46 -5 83 -11 86 -6 4 -9 0 -7 -11 2 -14
-8 -20 -50 -28 -29 -6 -52 -15 -50 -21 2 -5 5 -9 8 -9 3 1 24 4 48 8 37 6 42
4 42 -14 0 -19 -14 -26 -69 -32 -14 -2 -26 -9 -29 -16 -3 -9 9 -11 52 -6 53 6
56 5 56 -15 0 -11 -1 -21 -2 -22 -2 0 -40 -6 -85 -13 l-83 -12 0 77 c0 43 -4
81 -10 84 -6 4 -10 -25 -10 -79 0 -85 0 -86 -25 -86 -23 0 -25 4 -26 43 -1 49
-5 76 -13 85 -3 3 -6 -2 -6 -10 0 -21 -45 -29 -63 -10 -30 29 -86 -15 -72 -57
9 -29 36 -34 64 -13 15 10 36 21 49 24 31 9 30 -26 -3 -56 -34 -31 -78 -39
-120 -22 -38 16 -51 46 -42 101 3 19 2 37 -3 40 -5 3 -10 -32 -12 -77 -3 -82
-3 -83 -30 -86 l-28 -3 -1 83 c0 46 -3 76 -6 68 -9 -23 -24 -30 -65 -30 -28 0
-38 -4 -38 -16 0 -14 7 -16 45 -11 39 6 45 4 45 -12 0 -19 -25 -31 -67 -31
-16 0 -23 -6 -24 -20 -1 -11 -2 -26 -3 -32 0 -7 -13 -14 -28 -16 l-28 -3 -1
83 c0 60 -3 77 -9 61 -7 -17 -18 -23 -39 -23 -37 0 -61 -9 -61 -22 0 -7 17 -8
45 -5 39 6 45 4 45 -12 0 -15 -10 -20 -45 -25 -28 -5 -45 -12 -45 -21 0 -7 8
-12 18 -10 80 16 83 16 80 -8 -3 -19 -12 -23 -77 -32 -72 -10 -74 -11 -75 -38
-2 -31 35 -69 57 -62 7 2 26 6 42 9 17 3 45 9 63 15 38 11 36 11 62 11 13 0
24 10 31 27 12 33 26 43 59 43 17 0 29 -8 35 -22 11 -26 54 -31 71 -9 9 12 18
12 58 1 37 -10 49 -10 61 0 13 11 17 8 28 -19 6 -17 15 -31 19 -31 11 0 10 7
-4 30 -11 17 -9 23 9 42 19 19 26 20 48 10 15 -7 30 -10 35 -7 5 3 32 7 62 10
68 5 178 25 198 34 8 5 16 20 18 35 4 33 16 33 44 1 27 -31 64 -32 95 -3 19
18 27 20 45 10 46 -22 68 -23 111 -4 25 11 48 25 52 31 5 9 13 8 30 -3 19 -12
30 -14 51 -6 15 6 34 8 42 5 8 -3 30 4 49 16 29 18 43 20 92 15 58 -7 59 -6
64 21 3 15 -1 41 -9 58 -13 30 -13 30 -8 3 6 -26 4 -28 -30 -28 -20 0 -36 5
-36 10 0 11 -59 14 -84 4 -9 -3 -16 -12 -16 -20 0 -8 -10 -14 -24 -14 -13 0
-44 -3 -70 -6 l-46 -7 -1 39 c-1 43 -16 109 -18 82 -1 -13 -10 -18 -30 -18
-17 0 -33 5 -36 10 -9 14 -48 13 -63 -2 -16 -16 -15 -67 2 -74 7 -3 30 4 50
15 34 19 86 29 86 16 0 -4 -7 -19 -15 -35 -21 -41 -91 -66 -140 -50 -50 17
-69 49 -61 104 5 28 3 47 -4 51 -8 5 -11 -19 -9 -82z"/>
<path d="M3970 2344 c0 -6 7 -19 16 -30 14 -18 14 -18 3 6 -14 31 -19 36 -19
24z"/>
<path d="M1430 2270 c-9 -6 -10 -10 -3 -10 6 0 15 5 18 10 8 12 4 12 -15 0z"/>
<path d="M1435 2240 c-7 -11 22 -26 32 -16 4 3 -2 6 -13 6 -16 0 -17 2 -4 10
9 6 10 10 3 10 -6 0 -15 -5 -18 -10z"/>
<path d="M1500 2246 c0 -2 7 -7 16 -10 8 -3 12 -2 9 4 -6 10 -25 14 -25 6z"/>
<path d="M2221 2103 c-14 -30 -10 -37 17 -29 14 5 18 13 15 27 -8 30 -19 31
-32 2z"/>
<path d="M3806 2068 c0 -32 5 -53 13 -56 10 -3 11 8 6 44 -10 68 -20 74 -19
12z"/>
<path d="M3995 2110 c3 -5 13 -10 21 -10 8 0 12 5 9 10 -3 6 -13 10 -21 10 -8
0 -12 -4 -9 -10z"/>
<path d="M3906 2094 c-9 -24 12 -44 24 -24 5 8 8 19 7 24 -6 17 -24 17 -31 0z"/>
<path d="M3847 2093 c-4 -3 -7 -12 -7 -20 0 -20 28 -15 40 7 9 17 8 20 -8 20
-10 0 -22 -3 -25 -7z"/>
<path d="M3530 2046 c0 -44 0 -44 -41 -51 -37 -6 -40 -9 -26 -22 17 -18 72
-10 61 8 -3 6 5 4 18 -5 17 -11 35 -14 57 -10 27 6 31 10 27 33 -2 14 -5 31
-5 37 -1 6 -14 9 -31 6 -33 -5 -31 -22 3 -23 l22 0 -22 -11 c-13 -6 -23 -16
-23 -22 0 -6 -7 2 -15 18 -8 15 -12 38 -9 51 3 13 1 26 -5 29 -7 5 -11 -8 -11
-38z"/>
<path d="M3767 2083 c-5 -8 -10 -49 -8 -70 2 -28 19 -11 24 25 4 35 -5 63 -16
45z"/>
<path d="M3955 2070 c-4 -12 -15 -20 -28 -20 -20 0 -20 -1 -4 -17 22 -22 50
-8 52 26 2 29 -12 37 -20 11z"/>
<path d="M3467 2073 c-14 -13 -6 -23 18 -23 16 0 25 6 25 15 0 15 -31 21 -43
8z"/>
<path d="M3710 2059 c0 -24 23 -21 28 4 2 10 -3 17 -12 17 -10 0 -16 -9 -16
-21z"/>
<path d="M4007 2060 c-13 -12 -15 -20 -7 -25 16 -10 40 2 40 19 0 23 -13 25
-33 6z"/>
<path d="M1782 2045 c-16 -34 -15 -35 6 -35 26 0 30 6 24 35 -6 32 -16 32 -30
0z"/>
<path d="M3565 2060 c-3 -5 1 -10 10 -10 9 0 13 5 10 10 -3 6 -8 10 -10 10 -2
0 -7 -4 -10 -10z"/>
<path d="M3640 2050 c0 -23 8 -25 33 -6 24 18 21 26 -8 26 -18 0 -25 -5 -25
-20z"/>
<path d="M3384 2025 c24 -18 39 -20 34 -2 -3 6 -15 13 -29 15 -23 2 -23 2 -5
-13z"/>
<path d="M3460 2025 c0 -9 9 -15 25 -15 16 0 25 6 25 15 0 9 -9 15 -25 15 -16
0 -25 -6 -25 -15z"/>
<path d="M3845 2030 c3 -5 17 -10 31 -10 14 0 22 4 19 10 -3 6 -17 10 -31 10
-14 0 -22 -4 -19 -10z"/>
<path d="M3308 2023 c7 -3 16 -2 19 1 4 3 -2 6 -13 5 -11 0 -14 -3 -6 -6z"/>
<path d="M3723 2023 c-16 -6 -5 -33 13 -33 8 0 14 6 14 14 0 18 -11 25 -27 19z"/>
<path d="M3187 2014 c-11 -11 -8 -44 3 -44 15 0 24 30 13 41 -5 5 -12 6 -16 3z"/>
<path d="M3652 2013 c-19 -8 -4 -23 24 -23 16 0 24 5 22 13 -5 13 -26 18 -46
10z"/>
<path d="M3060 1979 c0 -24 23 -21 28 4 2 10 -3 17 -12 17 -10 0 -16 -9 -16
-21z"/>
<path d="M2767 1983 c-4 -3 -7 -19 -7 -35 0 -23 4 -29 18 -26 9 2 16 10 14 18
-2 7 2 16 9 20 6 4 8 13 5 19 -8 12 -29 15 -39 4z"/>
<path d="M2855 1970 c-3 -5 1 -10 10 -10 9 0 13 5 10 10 -3 6 -8 10 -10 10 -2
0 -7 -4 -10 -10z"/>
<path d="M2890 1961 c0 -6 -9 -11 -20 -11 -27 0 -25 -18 3 -23 20 -4 19 -4 -4
-6 -17 0 -29 5 -33 16 -6 14 -8 14 -22 -5 -8 -12 -24 -22 -34 -22 -17 0 -19
-5 -13 -32 7 -37 21 -51 43 -41 8 3 32 8 53 11 21 2 41 11 46 21 13 26 11 79
-5 92 -10 8 -14 8 -14 0z"/>
<path d="M2518 1929 c-24 -13 -23 -39 1 -39 20 0 37 28 24 41 -4 4 -16 3 -25
-2z"/>
<path d="M2590 1920 c0 -11 7 -20 15 -20 8 0 15 9 15 20 0 11 -7 20 -15 20 -8
0 -15 -9 -15 -20z"/>
<path d="M2205 1890 c-3 -5 1 -10 10 -10 9 0 13 5 10 10 -3 6 -8 10 -10 10 -2
0 -7 -4 -10 -10z"/>
<path d="M2270 1880 c0 -11 7 -20 15 -20 8 0 15 9 15 20 0 11 -7 20 -15 20 -8
0 -15 -9 -15 -20z"/>
<path d="M2440 1890 c0 -5 5 -10 10 -10 6 0 10 5 10 10 0 6 -4 10 -10 10 -5 0
-10 -4 -10 -10z"/>
<path d="M2335 1881 c-6 -11 9 -23 19 -14 9 9 7 23 -3 23 -6 0 -12 -4 -16 -9z"/>
<path d="M3808 363 c6 -2 18 -2 25 0 6 3 1 5 -13 5 -14 0 -19 -2 -12 -5z"/>
<path d="M4571 344 c0 -11 3 -14 6 -6 3 7 2 16 -1 19 -3 4 -6 -2 -5 -13z"/>
<path d="M4583 210 c0 -41 3 -106 7 -145 l7 -70 0 60 c1 33 -2 98 -6 145 l-8
85 0 -75z"/>
</g>
</svg>
