<svg version="1.1" id="Layer_1" xmlns="http://www.w3.org/2000/svg" xmlns:xlink="http://www.w3.org/1999/xlink" x="0px" y="0px"
	 width="100%" viewBox="0 0 512 512" enable-background="new 0 0 512 512" xml:space="preserve">
<path fill="#000000" opacity="1.000000" stroke="none" 
	d="
M312.000000,513.000000 
	C208.025253,513.000000 104.550499,513.000000 1.075748,513.000000 
	C1.050496,512.858643 1.003113,512.717224 1.003110,512.575867 
	C0.999988,342.117462 1.000000,171.659058 1.000000,1.000000 
	C86.245522,1.000000 171.491196,1.000000 256.736877,1.000000 
	C342.049408,1.000000 427.361908,1.000000 512.837219,1.000000 
	C512.837219,171.666534 512.837219,342.333252 512.837219,513.000000 
	C446.133759,513.000000 379.316864,513.000000 312.000000,513.000000 
M221.961807,247.974640 
	C246.945007,248.010635 271.928192,248.046616 296.990204,249.006577 
	C296.990204,263.924469 296.990204,278.842346 296.990204,294.161224 
	C278.264740,294.161224 260.138763,294.161224 241.151184,294.035797 
	C234.468872,294.033447 227.781601,293.895569 221.108276,294.139313 
	C219.719284,294.190033 218.158310,295.424866 217.057251,296.502838 
	C210.288452,303.129608 203.499985,309.746338 196.999771,316.632324 
	C194.571487,319.204712 192.435165,322.278229 190.960983,325.488434 
	C182.706818,343.462921 191.962021,365.516815 210.937424,370.608887 
	C220.136520,373.077484 230.199402,372.327209 240.193466,373.723846 
	C241.463547,377.142395 242.733643,380.560913 243.303543,384.063110 
	C228.125443,392.222504 220.969330,411.954773 224.463394,428.929108 
	C228.852463,450.251251 248.421753,464.034943 270.430847,462.251587 
	C286.902527,460.916901 303.261444,447.741608 307.671204,430.678436 
	C312.267273,412.894348 303.875824,391.783661 288.883179,383.140045 
	C289.980743,379.764465 291.078339,376.388855 293.091217,373.011841 
	C323.978363,372.999298 354.865509,372.986786 385.970673,373.751953 
	C387.041718,377.151154 388.112762,380.550385 388.518738,384.174805 
	C385.402679,386.894623 381.933044,389.304321 379.229767,392.386169 
	C365.058655,408.541901 365.790619,432.400452 379.481415,447.877014 
	C389.718597,459.449524 402.737457,464.235779 418.199677,462.013733 
	C429.168243,460.437439 438.133026,455.333099 445.111542,446.816284 
	C452.942627,437.258972 455.504730,425.992310 453.855804,414.082153 
	C452.059662,401.108643 446.350922,390.191742 434.159821,383.254211 
	C435.481079,379.849121 436.802338,376.444031 439.044952,373.009247 
	C445.204926,373.005859 451.373260,373.205597 457.522888,372.951660 
	C466.858215,372.566193 471.085297,368.205170 471.060669,362.455933 
	C471.025024,354.129120 467.119049,350.001892 458.640564,350.001587 
	C381.225342,349.998871 303.810120,350.000183 226.394897,349.999817 
	C225.063034,349.999786 223.713120,350.134705 222.402527,349.966187 
	C217.385040,349.321045 213.349457,347.388550 211.545151,342.110779 
	C209.936218,337.404510 212.084473,334.318207 215.221710,331.207764 
	C223.606064,322.895020 231.826828,314.417267 241.035828,306.000336 
	C294.535461,306.000305 348.035187,306.046967 401.534729,305.971039 
	C417.074951,305.948975 433.534698,296.041504 437.909698,279.365509 
	C444.350006,254.817230 450.155151,230.102341 456.230042,205.458237 
	C462.496063,180.038788 468.769012,154.621033 475.020416,129.197983 
	C476.403534,123.573174 474.400604,121.003662 468.663147,121.003723 
	C378.163940,121.004631 287.664703,121.012718 197.034958,120.198166 
	C197.016571,119.699005 197.090576,119.175507 196.966461,118.704185 
	C192.177643,100.518394 187.427689,82.321991 182.532440,64.164795 
	C181.007782,58.509590 176.395462,55.117664 170.506119,55.022125 
	C164.014175,54.916809 157.519592,54.973900 151.007202,54.094772 
	C150.877274,52.516918 150.747345,50.939064 150.593292,49.068478 
	C130.955048,49.068478 111.835510,48.684719 92.743210,49.239017 
	C83.905624,49.495598 76.587700,58.539776 77.068787,66.835167 
	C77.674614,77.281448 86.387146,84.524826 95.062408,84.168823 
	C110.009697,83.555443 125.000359,83.999001 139.972824,83.999001 
	C143.427048,83.999001 146.881271,83.998993 150.732574,83.998993 
	C150.846207,81.649765 150.932358,79.868584 151.930069,78.020073 
	C154.427185,78.015999 156.969879,77.729599 159.402878,78.122528 
	C160.691040,78.330566 162.532150,79.503250 162.854248,80.609901 
	C165.410141,89.391426 167.665634,98.260513 170.004135,107.105156 
	C174.305634,123.374153 178.600830,139.644806 181.975281,155.986160 
	C169.392593,155.986160 156.809906,155.986160 144.243561,155.986160 
	C144.243561,160.326416 144.243561,163.928940 144.243561,167.717987 
	C180.193222,167.717987 215.898285,167.717987 251.839966,167.717987 
	C251.839966,163.647385 251.839966,159.854919 251.983459,155.126984 
	C251.983459,147.857208 251.983459,140.587418 251.983459,133.279190 
	C267.257324,133.279190 281.981873,133.279190 296.703979,133.279190 
	C296.703979,148.287430 296.703979,163.012466 296.703979,178.165314 
	C268.289520,178.165314 240.169830,178.165314 211.119751,178.014618 
	C203.840836,178.014618 196.561920,178.014618 188.673706,178.014618 
	C193.864151,197.754852 198.880997,216.834869 202.979996,235.985977 
	C198.742386,235.985977 194.504761,235.985977 190.381744,235.985977 
	C190.381744,240.390244 190.381744,244.093018 190.381744,247.834518 
	C200.855286,247.834518 210.946655,247.834518 221.961807,247.974640 
M252.004227,270.970337 
	C252.004227,266.397705 252.004227,261.825073 252.004227,257.284485 
	C247.703079,257.284485 243.988068,257.284485 239.972351,257.284485 
	C239.972351,262.337555 239.972351,267.109680 239.259399,271.979279 
	C238.541031,271.958099 237.822662,271.936951 237.022919,271.107239 
	C235.872772,266.417175 234.722626,261.727081 233.631729,257.278595 
	C225.456192,257.278595 217.871323,257.278595 210.153275,257.278595 
	C211.106400,262.345825 212.004059,267.118164 211.980682,271.981384 
	C193.411179,271.981384 174.841690,271.981384 156.401382,271.981384 
	C156.401382,276.405975 156.401382,280.121765 156.401382,283.758850 
	C192.701523,283.758850 228.600266,283.758850 264.704468,283.758850 
	C264.704468,279.800049 264.704468,276.085419 264.704468,271.884552 
	C260.286469,271.884552 256.158478,271.884552 252.004227,270.970337 
M123.500000,206.000641 
	C141.578018,206.000641 159.656021,206.000641 177.593445,206.000641 
	C177.593445,201.584274 177.593445,197.870010 177.593445,194.257370 
	C141.608398,194.257370 106.030327,194.257370 70.315819,194.257370 
	C70.315819,198.235504 70.315819,201.950897 70.315819,206.000641 
	C87.919907,206.000641 105.209953,206.000641 123.500000,206.000641 
M128.999557,241.532440 
	C128.999557,243.612411 128.999557,245.692383 128.999557,247.758926 
	C135.667664,247.758926 141.590866,247.758926 147.710098,247.758926 
	C147.710098,243.804245 147.710098,240.091232 147.710098,236.331604 
	C141.382690,236.331604 135.337952,236.331604 128.999619,236.331604 
	C128.999619,237.968369 128.999619,239.275055 128.999557,241.532440 
M49.476097,206.000641 
	C52.232944,206.000641 54.989792,206.000641 57.606731,206.000641 
	C57.606731,201.596832 57.606731,197.885941 57.606731,194.260406 
	C51.287197,194.260406 45.365185,194.260406 39.309700,194.260406 
	C39.309700,198.234955 39.309700,201.944138 39.309700,206.000641 
	C42.576706,206.000641 45.538353,206.000641 49.476097,206.000641 
M101.000198,162.467590 
	C101.000198,160.392044 101.000198,158.316513 101.000198,156.382904 
	C94.238579,156.382904 88.205963,156.382904 82.334610,156.382904 
	C82.334610,160.347870 82.334610,163.926285 82.334610,167.665680 
	C88.685165,167.665680 94.699799,167.665680 101.000183,167.665680 
	C101.000183,166.026520 101.000183,164.722595 101.000198,162.467590 
M112.995758,281.305817 
	C112.995758,278.357727 112.995758,275.409637 112.995758,272.291565 
	C106.799149,272.291565 101.089859,272.291565 95.344383,272.291565 
	C95.344383,276.303802 95.344383,280.015594 95.344383,283.989655 
	C100.652283,283.989655 105.621002,284.067932 110.582336,283.911591 
	C111.396309,283.885956 112.177765,282.828339 112.995758,281.305817 
M133.546967,271.999969 
	C131.123962,271.999969 128.700958,271.999969 126.389069,271.999969 
	C126.389069,276.390594 126.389069,280.101227 126.389069,283.745911 
	C132.370987,283.745911 137.960541,283.745911 143.695343,283.745911 
	C143.695343,279.777130 143.695343,276.067474 143.695343,271.999969 
	C140.434662,271.999969 137.474167,271.999969 133.546967,271.999969 
M172.385788,247.998062 
	C174.148743,247.998062 175.911682,247.998062 177.632294,247.998062 
	C177.632294,243.650497 177.632294,239.940704 177.632294,236.234253 
	C171.673050,236.234253 166.084213,236.234253 160.284180,236.234253 
	C160.284180,240.179886 160.284180,243.889114 160.284180,247.998077 
	C164.182968,247.998077 167.802917,247.998077 172.385788,247.998062 
M116.693359,168.001572 
	C121.304581,168.001572 125.915802,168.001572 130.709930,168.001572 
	C130.709930,163.808624 130.709930,160.098221 130.709930,156.333923 
	C124.704636,156.333923 118.995659,156.333923 113.002419,156.333923 
	C113.002419,159.469025 112.752098,162.306976 113.127487,165.059601 
	C113.274498,166.137650 114.824860,167.024323 116.693359,168.001572 
z"/>
<path fill="#C6C6C6" opacity="1.000000" stroke="none" 
	d="
M242.012802,294.161224 
	C260.138763,294.161224 278.264740,294.161224 296.990204,294.161224 
	C296.990204,278.842346 296.990204,263.924469 296.991882,248.275787 
	C296.995850,247.363556 296.998169,247.182098 297.074951,246.550720 
	C297.117798,243.060867 297.086151,240.020920 297.057526,236.710892 
	C297.013824,236.266830 296.967133,236.092865 296.955811,235.456543 
	C296.991211,220.084335 296.991211,205.174515 296.991211,190.296844 
	C281.695038,190.296844 266.979401,190.296844 252.089844,190.296844 
	C252.089844,205.707993 252.089844,220.825104 251.624847,235.998199 
	C247.410156,236.016876 243.660461,235.979553 239.950470,235.479919 
	C239.990143,220.104965 239.990143,205.192276 239.990143,190.108536 
	C231.636490,190.108536 223.843445,190.108536 215.771881,189.864014 
	C214.345627,185.801422 213.197876,181.983368 212.050140,178.165314 
	C240.169830,178.165314 268.289520,178.165314 296.703979,178.165314 
	C296.703979,163.012466 296.703979,148.287430 296.703979,133.279190 
	C281.981873,133.279190 267.257324,133.279190 251.983459,133.279190 
	C251.983459,140.587418 251.983459,147.857208 251.461548,155.597565 
	C247.286484,156.004547 243.633347,155.940964 239.988892,155.419434 
	C239.997604,147.713486 239.997604,140.465469 239.997604,133.113373 
	C226.596283,133.113373 213.814590,133.113373 200.751633,132.874786 
	C199.368729,128.763855 198.267105,124.891510 197.165482,121.019157 
	C287.664703,121.012718 378.163940,121.004631 468.663147,121.003723 
	C474.400604,121.003662 476.403534,123.573174 475.020416,129.197983 
	C468.769012,154.621033 462.496063,180.038788 456.230042,205.458237 
	C450.155151,230.102341 444.350006,254.817230 437.909698,279.365509 
	C433.534698,296.041504 417.074951,305.948975 401.534729,305.971039 
	C348.035187,306.046967 294.535461,306.000305 240.591232,305.641815 
	C242.281494,301.829773 244.643127,298.414307 242.012802,294.161224 
M349.362640,190.001740 
	C335.961792,190.001740 322.560913,190.001740 309.345947,190.001740 
	C309.345947,205.740021 309.345947,220.790680 309.345947,235.650970 
	C324.411530,235.650970 339.129303,235.650970 353.998657,235.650970 
	C353.998657,221.333649 353.906616,207.363617 354.071198,193.396591 
	C354.106934,190.362610 352.955963,189.616592 349.362640,190.001740 
M309.000153,273.499817 
	C309.000153,280.255493 309.000153,287.011169 309.000153,293.695557 
	C324.324829,293.695557 339.039673,293.695557 353.695557,293.695557 
	C353.695557,278.341522 353.695557,263.293579 353.695557,248.303604 
	C338.675171,248.303604 323.960327,248.303604 309.000153,248.303604 
	C309.000153,256.570465 309.000153,264.535187 309.000153,273.499817 
M383.501343,190.001724 
	C377.745972,190.001724 371.990570,190.001724 366.304535,190.001724 
	C366.304535,205.660782 366.304535,220.708664 366.304535,235.694855 
	C381.326447,235.694855 396.041504,235.694855 410.695038,235.694855 
	C410.695038,220.340225 410.695038,205.292404 410.695038,190.001724 
	C401.761871,190.001724 393.131256,190.001724 383.501343,190.001724 
M382.501770,247.999451 
	C377.076508,247.999451 371.651245,247.999451 366.320496,247.999451 
	C366.320496,263.677277 366.320496,278.733246 366.320496,293.998169 
	C378.944641,293.998169 391.251221,294.138458 403.552246,293.938202 
	C409.587341,293.839996 410.999176,292.035675 410.999725,286.014801 
	C411.000214,281.019440 410.999847,276.024109 410.999847,271.028748 
	C410.999847,263.434753 410.999847,255.840759 410.999847,247.999451 
	C401.437347,247.999451 392.469360,247.999451 382.501770,247.999451 
M410.999847,147.504730 
	C410.999847,142.747040 410.999847,137.989334 410.999847,133.303635 
	C395.672150,133.303635 380.956909,133.303635 366.304718,133.303635 
	C366.304718,148.326645 366.304718,163.041977 366.304718,177.694458 
	C381.327057,177.694458 396.042297,177.694458 410.999847,177.694458 
	C410.999847,167.761612 410.999847,158.132614 410.999847,147.504730 
M314.610626,132.997772 
	C312.840881,132.997772 311.071106,132.997772 309.275818,132.997772 
	C309.275818,148.264526 309.275818,162.980438 309.275818,177.721695 
	C324.268982,177.721695 338.984833,177.721695 353.719299,177.721695 
	C353.719299,162.725769 353.719299,148.009720 353.719299,132.997772 
	C340.822876,132.997772 328.204102,132.997772 314.610626,132.997772 
M422.997803,152.500458 
	C422.997803,160.924728 422.997803,169.348984 422.997803,177.871918 
	C432.571533,177.871918 441.527374,177.871918 450.847412,177.871918 
	C454.476990,162.973312 458.097748,148.110855 461.707336,133.294220 
	C448.752441,133.294220 436.005280,133.294220 422.997803,133.294220 
	C422.997803,139.558411 422.997803,145.529556 422.997803,152.500458 
M441.505615,215.994034 
	C443.522736,207.400406 445.539856,198.806778 447.518860,190.375488 
	C439.235504,190.375488 431.162811,190.375488 423.217102,190.375488 
	C423.217102,205.695068 423.217102,220.640137 423.217102,235.790894 
	C427.860718,235.790894 432.285919,235.790894 436.697113,235.790894 
	C438.177063,229.318878 439.617218,223.020844 441.505615,215.994034 
M422.997803,269.474274 
	C422.997803,273.433716 422.997803,277.393188 422.997803,281.352631 
	C423.569794,281.424500 424.141754,281.496368 424.713745,281.568268 
	C427.635956,270.554352 430.558167,259.540466 433.539673,248.303116 
	C429.371277,248.303116 426.303345,248.303116 422.997803,248.303116 
	C422.997803,255.230209 422.997803,261.856445 422.997803,269.474274 
z"/>
<path fill="#177CA0" opacity="1.000000" stroke="none" 
	d="
M241.582001,294.098511 
	C244.643127,298.414307 242.281494,301.829773 240.129639,305.644196 
	C231.826828,314.417267 223.606064,322.895020 215.221710,331.207764 
	C212.084473,334.318207 209.936218,337.404510 211.545151,342.110779 
	C213.349457,347.388550 217.385040,349.321045 222.402527,349.966187 
	C223.713120,350.134705 225.063034,349.999786 226.394897,349.999817 
	C303.810120,350.000183 381.225342,349.998871 458.640564,350.001587 
	C467.119049,350.001892 471.025024,354.129120 471.060669,362.455933 
	C471.085297,368.205170 466.858215,372.566193 457.522888,372.951660 
	C451.373260,373.205597 445.204926,373.005859 438.284119,372.715363 
	C420.834778,372.322693 404.146362,372.215485 387.457733,372.161285 
	C386.890228,372.159454 386.321045,372.691193 385.752655,372.974243 
	C354.865509,372.986786 323.978363,372.999298 292.339294,372.692871 
	C275.071960,372.281464 258.556549,372.177032 242.040985,372.136810 
	C241.318451,372.135071 240.594498,372.721680 239.871216,373.034241 
	C230.199402,372.327209 220.136520,373.077484 210.937424,370.608887 
	C191.962021,365.516815 182.706818,343.462921 190.960983,325.488434 
	C192.435165,322.278229 194.571487,319.204712 196.999771,316.632324 
	C203.499985,309.746338 210.288452,303.129608 217.057251,296.502838 
	C218.158310,295.424866 219.719284,294.190033 221.108276,294.139313 
	C227.781601,293.895569 234.468872,294.033447 241.582001,294.098511 
z"/>
<path fill="#2C4256" opacity="1.000000" stroke="none" 
	d="
M288.759583,383.910797 
	C303.875824,391.783661 312.267273,412.894348 307.671204,430.678436 
	C303.261444,447.741608 286.902527,460.916901 270.430847,462.251587 
	C248.421753,464.034943 228.852463,450.251251 224.463394,428.929108 
	C220.969330,411.954773 228.125443,392.222504 243.945419,384.236877 
	C247.008179,391.962830 249.429047,399.515015 251.552322,407.226562 
	C244.056992,416.003052 245.946182,425.542175 250.963867,432.332306 
	C255.933563,439.057434 265.430237,441.125244 274.207092,437.818939 
	C286.424927,433.216339 289.778809,415.983002 280.174316,406.653625 
	C283.019775,398.820496 285.889679,391.365662 288.759583,383.910797 
z"/>
<path fill="#2C4256" opacity="1.000000" stroke="none" 
	d="
M433.947205,383.973633 
	C446.350922,390.191742 452.059662,401.108643 453.855804,414.082153 
	C455.504730,425.992310 452.942627,437.258972 445.111542,446.816284 
	C438.133026,455.333099 429.168243,460.437439 418.199677,462.013733 
	C402.737457,464.235779 389.718597,459.449524 379.481415,447.877014 
	C365.790619,432.400452 365.058655,408.541901 379.229767,392.386169 
	C381.933044,389.304321 385.402679,386.894623 389.175842,384.204285 
	C392.240143,391.714111 394.647308,399.194489 396.936279,407.023132 
	C396.044708,408.633911 395.202393,409.859833 394.508972,411.164886 
	C389.768829,420.086304 392.251770,430.524963 401.118561,436.379730 
	C409.536499,441.938080 418.384094,440.701263 425.495300,433.764526 
	C433.365601,426.087280 433.216797,414.883575 426.087585,406.670471 
	C428.665466,398.840668 431.306335,391.407135 433.947205,383.973633 
z"/>
<path fill="#177CA0" opacity="1.000000" stroke="none" 
	d="
M197.100220,120.608658 
	C198.267105,124.891510 199.368729,128.763855 200.743103,133.271820 
	C203.043015,141.242279 205.070190,148.577118 206.623260,155.938385 
	C198.398987,155.948120 190.648819,155.931458 182.898636,155.914780 
	C178.600830,139.644806 174.305634,123.374153 170.004135,107.105156 
	C167.665634,98.260513 165.410141,89.391426 162.854248,80.609901 
	C162.532150,79.503250 160.691040,78.330566 159.402878,78.122528 
	C156.969879,77.729599 154.427185,78.015999 151.423538,77.581421 
	C150.953400,69.748589 150.989777,62.354420 151.026154,54.960243 
	C157.519592,54.973900 164.014175,54.916809 170.506119,55.022125 
	C176.395462,55.117664 181.007782,58.509590 182.532440,64.164795 
	C187.427689,82.321991 192.177643,100.518394 196.966461,118.704185 
	C197.090576,119.175507 197.016571,119.699005 197.100220,120.608658 
z"/>
<path fill="#2C4256" opacity="1.000000" stroke="none" 
	d="
M151.016678,54.527512 
	C150.989777,62.354420 150.953400,69.748589 150.967758,77.615082 
	C150.932358,79.868584 150.846207,81.649765 150.732574,83.998993 
	C146.881271,83.998993 143.427048,83.999001 139.972824,83.999001 
	C125.000359,83.999001 110.009697,83.555443 95.062408,84.168823 
	C86.387146,84.524826 77.674614,77.281448 77.068787,66.835167 
	C76.587700,58.539776 83.905624,49.495598 92.743210,49.239017 
	C111.835510,48.684719 130.955048,49.068478 150.593292,49.068478 
	C150.747345,50.939064 150.877274,52.516918 151.016678,54.527512 
z"/>
<path fill="#C5C5C5" opacity="1.000000" stroke="none" 
	d="
M397.054443,406.674866 
	C394.647308,399.194489 392.240143,391.714111 389.508392,384.091675 
	C388.112762,380.550385 387.041718,377.151154 385.861664,373.363098 
	C386.321045,372.691193 386.890228,372.159454 387.457733,372.161285 
	C404.146362,372.215485 420.834778,372.322693 437.823425,372.730194 
	C436.802338,376.444031 435.481079,379.849121 434.053528,383.613922 
	C431.306335,391.407135 428.665466,398.840668 425.918823,406.998230 
	C425.302216,408.889771 424.789307,410.056396 424.280792,411.224945 
	C419.827484,421.459259 408.335144,423.251190 401.256042,414.619781 
	C399.394318,412.349731 398.430573,409.343170 397.054443,406.674866 
z"/>
<path fill="#C5C5C5" opacity="1.000000" stroke="none" 
	d="
M251.849930,407.067230 
	C249.429047,399.515015 247.008179,391.962830 244.295517,384.195038 
	C242.733643,380.560913 241.463547,377.142395 240.032349,373.379028 
	C240.594498,372.721680 241.318451,372.135071 242.040985,372.136810 
	C258.556549,372.177032 275.071960,372.281464 291.881653,372.693573 
	C291.078339,376.388855 289.980743,379.764465 288.821381,383.525421 
	C285.889679,391.365662 283.019775,398.820496 280.082458,407.026611 
	C279.688385,408.511383 279.299988,409.224030 279.044617,409.981537 
	C276.284210,418.169525 269.532990,421.465088 261.438995,419.063110 
	C255.260010,417.229431 254.155685,411.766388 251.849930,407.067230 
z"/>
<path fill="#177CA0" opacity="1.000000" stroke="none" 
	d="
M211.584946,178.089966 
	C213.197876,181.983368 214.345627,185.801422 215.756317,190.259399 
	C217.014450,194.651367 218.000031,198.406006 219.006638,202.154999 
	C222.026947,213.403641 225.055450,224.650101 227.840759,235.954987 
	C227.600754,236.012573 227.115387,236.102615 226.640259,236.075287 
	C218.742691,236.003601 211.320267,235.959244 203.897842,235.914886 
	C198.880997,216.834869 193.864151,197.754852 188.673706,178.014618 
	C196.561920,178.014618 203.840836,178.014618 211.584946,178.089966 
z"/>
<path fill="#3FA2B7" opacity="1.000000" stroke="none" 
	d="
M237.104294,271.915802 
	C237.822662,271.936951 238.541031,271.958099 240.073334,272.004028 
	C244.601669,271.980713 248.316055,271.932648 252.030457,271.884552 
	C256.158478,271.884552 260.286469,271.884552 264.704468,271.884552 
	C264.704468,276.085419 264.704468,279.800049 264.704468,283.758850 
	C228.600266,283.758850 192.701523,283.758850 156.401382,283.758850 
	C156.401382,280.121765 156.401382,276.405975 156.401382,271.981384 
	C174.841690,271.981384 193.411179,271.981384 212.913879,271.961365 
	C221.599487,271.932861 229.351883,271.924316 237.104294,271.915802 
z"/>
<path fill="#3FA2B7" opacity="1.000000" stroke="none" 
	d="
M182.436951,155.950470 
	C190.648819,155.931458 198.398987,155.948120 207.085266,155.975159 
	C218.674316,155.949478 229.327255,155.913422 239.980194,155.877380 
	C243.633347,155.940964 247.286484,156.004547 251.389801,156.065292 
	C251.839966,159.854919 251.839966,163.647385 251.839966,167.717987 
	C215.898285,167.717987 180.193222,167.717987 144.243561,167.717987 
	C144.243561,163.928940 144.243561,160.326416 144.243561,155.986160 
	C156.809906,155.986160 169.392593,155.986160 182.436951,155.950470 
z"/>
<path fill="#3FA2B7" opacity="1.000000" stroke="none" 
	d="
M123.000000,206.000641 
	C105.209953,206.000641 87.919907,206.000641 70.315819,206.000641 
	C70.315819,201.950897 70.315819,198.235504 70.315819,194.257370 
	C106.030327,194.257370 141.608398,194.257370 177.593445,194.257370 
	C177.593445,197.870010 177.593445,201.584274 177.593445,206.000641 
	C159.656021,206.000641 141.578018,206.000641 123.000000,206.000641 
z"/>
<path fill="#3FA2B7" opacity="1.000000" stroke="none" 
	d="
M203.438919,235.950439 
	C211.320267,235.959244 218.742691,236.003601 226.957123,236.303253 
	C231.501846,236.421646 235.254578,236.284760 239.227814,236.072906 
	C239.448318,235.997940 239.910782,235.942230 239.910782,235.942230 
	C243.660461,235.979553 247.410156,236.016876 251.855988,236.026123 
	C252.552155,235.998032 252.992645,236.147858 253.344177,236.365570 
	C268.148651,236.715836 282.601562,236.848404 297.054504,236.980972 
	C297.086151,240.020920 297.117798,243.060867 296.606262,246.550476 
	C272.985962,247.000092 249.908783,246.980179 226.831802,247.036148 
	C224.899902,247.040833 222.969254,247.556320 221.038025,247.834503 
	C210.946655,247.834518 200.855286,247.834518 190.381744,247.834518 
	C190.381744,244.093018 190.381744,240.390244 190.381744,235.985977 
	C194.504761,235.985977 198.742386,235.985977 203.438919,235.950439 
z"/>
<path fill="#177CA0" opacity="1.000000" stroke="none" 
	d="
M237.063599,271.511536 
	C229.351883,271.924316 221.599487,271.932861 213.374390,271.915924 
	C212.004059,267.118164 211.106400,262.345825 210.153275,257.278595 
	C217.871323,257.278595 225.456192,257.278595 233.631729,257.278595 
	C234.722626,261.727081 235.872772,266.417175 237.063599,271.511536 
z"/>
<path fill="#3FA2B7" opacity="1.000000" stroke="none" 
	d="
M128.999588,241.057083 
	C128.999619,239.275055 128.999619,237.968369 128.999619,236.331604 
	C135.337952,236.331604 141.382690,236.331604 147.710098,236.331604 
	C147.710098,240.091232 147.710098,243.804245 147.710098,247.758926 
	C141.590866,247.758926 135.667664,247.758926 128.999557,247.758926 
	C128.999557,245.692383 128.999557,243.612411 128.999588,241.057083 
z"/>
<path fill="#3FA2B7" opacity="1.000000" stroke="none" 
	d="
M48.988049,206.000641 
	C45.538353,206.000641 42.576706,206.000641 39.309700,206.000641 
	C39.309700,201.944138 39.309700,198.234955 39.309700,194.260406 
	C45.365185,194.260406 51.287197,194.260406 57.606731,194.260406 
	C57.606731,197.885941 57.606731,201.596832 57.606731,206.000641 
	C54.989792,206.000641 52.232944,206.000641 48.988049,206.000641 
z"/>
<path fill="#3FA2B7" opacity="1.000000" stroke="none" 
	d="
M101.000191,162.943130 
	C101.000183,164.722595 101.000183,166.026520 101.000183,167.665680 
	C94.699799,167.665680 88.685165,167.665680 82.334610,167.665680 
	C82.334610,163.926285 82.334610,160.347870 82.334610,156.382904 
	C88.205963,156.382904 94.238579,156.382904 101.000198,156.382904 
	C101.000198,158.316513 101.000198,160.392044 101.000191,162.943130 
z"/>
<path fill="#3FA2B7" opacity="1.000000" stroke="none" 
	d="
M112.985001,281.776733 
	C112.177765,282.828339 111.396309,283.885956 110.582336,283.911591 
	C105.621002,284.067932 100.652283,283.989655 95.344383,283.989655 
	C95.344383,280.015594 95.344383,276.303802 95.344383,272.291565 
	C101.089859,272.291565 106.799149,272.291565 112.995758,272.291565 
	C112.995758,275.409637 112.995758,278.357727 112.985001,281.776733 
z"/>
<path fill="#3FA2B7" opacity="1.000000" stroke="none" 
	d="
M134.030319,271.999969 
	C137.474167,271.999969 140.434662,271.999969 143.695343,271.999969 
	C143.695343,276.067474 143.695343,279.777130 143.695343,283.745911 
	C137.960541,283.745911 132.370987,283.745911 126.389069,283.745911 
	C126.389069,280.101227 126.389069,276.390594 126.389069,271.999969 
	C128.700958,271.999969 131.123962,271.999969 134.030319,271.999969 
z"/>
<path fill="#3FA2B7" opacity="1.000000" stroke="none" 
	d="
M171.904327,247.998077 
	C167.802917,247.998077 164.182968,247.998077 160.284180,247.998077 
	C160.284180,243.889114 160.284180,240.179886 160.284180,236.234253 
	C166.084213,236.234253 171.673050,236.234253 177.632294,236.234253 
	C177.632294,239.940704 177.632294,243.650497 177.632294,247.998062 
	C175.911682,247.998062 174.148743,247.998062 171.904327,247.998077 
z"/>
<path fill="#3FA2B7" opacity="1.000000" stroke="none" 
	d="
M116.214722,167.999863 
	C114.824860,167.024323 113.274498,166.137650 113.127487,165.059601 
	C112.752098,162.306976 113.002419,159.469025 113.002419,156.333923 
	C118.995659,156.333923 124.704636,156.333923 130.709930,156.333923 
	C130.709930,160.098221 130.709930,163.808624 130.709930,168.001572 
	C125.915802,168.001572 121.304581,168.001572 116.214722,167.999863 
z"/>
<path fill="#C6C6C6" opacity="1.000000" stroke="none" 
	d="
M252.017334,271.427429 
	C248.316055,271.932648 244.601669,271.980713 240.429810,271.955292 
	C239.972351,267.109680 239.972351,262.337555 239.972351,257.284485 
	C243.988068,257.284485 247.703079,257.284485 252.004227,257.284485 
	C252.004227,261.825073 252.004227,266.397705 252.017334,271.427429 
z"/>
<path fill="#77AFBB" opacity="1.000000" stroke="none" 
	d="
M221.499908,247.904572 
	C222.969254,247.556320 224.899902,247.040833 226.831802,247.036148 
	C249.908783,246.980179 272.985962,247.000092 296.531769,247.000397 
	C296.998169,247.182098 296.995850,247.363556 296.952484,247.813812 
	C271.928192,248.046616 246.945007,248.010635 221.499908,247.904572 
z"/>
<path fill="#000000" opacity="1.000000" stroke="none" 
	d="
M349.846375,190.001770 
	C352.955963,189.616592 354.106934,190.362610 354.071198,193.396591 
	C353.906616,207.363617 353.998657,221.333649 353.998657,235.650970 
	C339.129303,235.650970 324.411530,235.650970 309.345947,235.650970 
	C309.345947,220.790680 309.345947,205.740021 309.345947,190.001740 
	C322.560913,190.001740 335.961792,190.001740 349.846375,190.001770 
z"/>
<path fill="#000000" opacity="1.000000" stroke="none" 
	d="
M309.000153,272.999847 
	C309.000153,264.535187 309.000153,256.570465 309.000153,248.303604 
	C323.960327,248.303604 338.675171,248.303604 353.695557,248.303604 
	C353.695557,263.293579 353.695557,278.341522 353.695557,293.695557 
	C339.039673,293.695557 324.324829,293.695557 309.000153,293.695557 
	C309.000153,287.011169 309.000153,280.255493 309.000153,272.999847 
z"/>
<path fill="#000000" opacity="1.000000" stroke="none" 
	d="
M384.001007,190.001724 
	C393.131256,190.001724 401.761871,190.001724 410.695038,190.001724 
	C410.695038,205.292404 410.695038,220.340225 410.695038,235.694855 
	C396.041504,235.694855 381.326447,235.694855 366.304535,235.694855 
	C366.304535,220.708664 366.304535,205.660782 366.304535,190.001724 
	C371.990570,190.001724 377.745972,190.001724 384.001007,190.001724 
z"/>
<path fill="#000000" opacity="1.000000" stroke="none" 
	d="
M252.992645,236.147858 
	C252.992645,236.147858 252.552155,235.998032 252.320999,235.970123 
	C252.089844,220.825104 252.089844,205.707993 252.089844,190.296844 
	C266.979401,190.296844 281.695038,190.296844 296.991211,190.296844 
	C296.991211,205.174515 296.991211,220.084335 296.494019,235.490814 
	C281.662079,236.040924 267.327362,236.094391 252.992645,236.147858 
z"/>
<path fill="#000000" opacity="1.000000" stroke="none" 
	d="
M383.001556,247.999451 
	C392.469360,247.999451 401.437347,247.999451 410.999847,247.999451 
	C410.999847,255.840759 410.999847,263.434753 410.999847,271.028748 
	C410.999847,276.024109 411.000214,281.019440 410.999725,286.014801 
	C410.999176,292.035675 409.587341,293.839996 403.552246,293.938202 
	C391.251221,294.138458 378.944641,293.998169 366.320496,293.998169 
	C366.320496,278.733246 366.320496,263.677277 366.320496,247.999451 
	C371.651245,247.999451 377.076508,247.999451 383.001556,247.999451 
z"/>
<path fill="#000000" opacity="1.000000" stroke="none" 
	d="
M410.999847,148.004166 
	C410.999847,158.132614 410.999847,167.761612 410.999847,177.694458 
	C396.042297,177.694458 381.327057,177.694458 366.304718,177.694458 
	C366.304718,163.041977 366.304718,148.326645 366.304718,133.303635 
	C380.956909,133.303635 395.672150,133.303635 410.999847,133.303635 
	C410.999847,137.989334 410.999847,142.747040 410.999847,148.004166 
z"/>
<path fill="#000000" opacity="1.000000" stroke="none" 
	d="
M315.097961,132.997772 
	C328.204102,132.997772 340.822876,132.997772 353.719299,132.997772 
	C353.719299,148.009720 353.719299,162.725769 353.719299,177.721695 
	C338.984833,177.721695 324.268982,177.721695 309.275818,177.721695 
	C309.275818,162.980438 309.275818,148.264526 309.275818,132.997772 
	C311.071106,132.997772 312.840881,132.997772 315.097961,132.997772 
z"/>
<path fill="#000000" opacity="1.000000" stroke="none" 
	d="
M422.997803,152.000580 
	C422.997803,145.529556 422.997803,139.558411 422.997803,133.294220 
	C436.005280,133.294220 448.752441,133.294220 461.707336,133.294220 
	C458.097748,148.110855 454.476990,162.973312 450.847412,177.871918 
	C441.527374,177.871918 432.571533,177.871918 422.997803,177.871918 
	C422.997803,169.348984 422.997803,160.924728 422.997803,152.000580 
z"/>
<path fill="#000000" opacity="1.000000" stroke="none" 
	d="
M441.281494,216.358429 
	C439.617218,223.020844 438.177063,229.318878 436.697113,235.790894 
	C432.285919,235.790894 427.860718,235.790894 423.217102,235.790894 
	C423.217102,220.640137 423.217102,205.695068 423.217102,190.375488 
	C431.162811,190.375488 439.235504,190.375488 447.518860,190.375488 
	C445.539856,198.806778 443.522736,207.400406 441.281494,216.358429 
z"/>
<path fill="#000000" opacity="1.000000" stroke="none" 
	d="
M239.950470,235.479935 
	C239.910782,235.942230 239.448318,235.997940 238.772980,236.011139 
	C234.758682,235.982025 231.419724,235.939728 228.080765,235.897430 
	C225.055450,224.650101 222.026947,213.403641 219.006638,202.154999 
	C218.000031,198.406006 217.014450,194.651367 216.034821,190.503937 
	C223.843445,190.108536 231.636490,190.108536 239.990143,190.108536 
	C239.990143,205.192276 239.990143,220.104965 239.950470,235.479935 
z"/>
<path fill="#000000" opacity="1.000000" stroke="none" 
	d="
M239.988892,155.419434 
	C229.327255,155.913422 218.674316,155.949478 207.559357,155.948746 
	C205.070190,148.577118 203.043015,141.242279 201.024368,133.510406 
	C213.814590,133.113373 226.596283,133.113373 239.997604,133.113373 
	C239.997604,140.465469 239.997604,147.713486 239.988892,155.419434 
z"/>
<path fill="#000000" opacity="1.000000" stroke="none" 
	d="
M422.997803,268.978455 
	C422.997803,261.856445 422.997803,255.230209 422.997803,248.303116 
	C426.303345,248.303116 429.371277,248.303116 433.539673,248.303116 
	C430.558167,259.540466 427.635956,270.554352 424.713745,281.568268 
	C424.141754,281.496368 423.569794,281.424500 422.997803,281.352631 
	C422.997803,277.393188 422.997803,273.433716 422.997803,268.978455 
z"/>
<path fill="#5AA9BA" opacity="1.000000" stroke="none" 
	d="
M253.344177,236.365570 
	C267.327362,236.094391 281.662079,236.040924 296.458618,235.953186 
	C296.967133,236.092865 297.013824,236.266830 297.057526,236.710892 
	C282.601562,236.848404 268.148651,236.715836 253.344177,236.365570 
z"/>
<path fill="#000000" opacity="1.000000" stroke="none" 
	d="
M251.552322,407.226562 
	C254.155685,411.766388 255.260010,417.229431 261.438995,419.063110 
	C269.532990,421.465088 276.284210,418.169525 279.044617,409.981537 
	C279.299988,409.224030 279.688385,408.511383 280.106903,407.404907 
	C289.778809,415.983002 286.424927,433.216339 274.207092,437.818939 
	C265.430237,441.125244 255.933563,439.057434 250.963867,432.332306 
	C245.946182,425.542175 244.056992,416.003052 251.552322,407.226562 
z"/>
<path fill="#000000" opacity="1.000000" stroke="none" 
	d="
M396.936279,407.023132 
	C398.430573,409.343170 399.394318,412.349731 401.256042,414.619781 
	C408.335144,423.251190 419.827484,421.459259 424.280792,411.224945 
	C424.789307,410.056396 425.302216,408.889771 425.981812,407.394501 
	C433.216797,414.883575 433.365601,426.087280 425.495300,433.764526 
	C418.384094,440.701263 409.536499,441.938080 401.118561,436.379730 
	C392.251770,430.524963 389.768829,420.086304 394.508972,411.164886 
	C395.202393,409.859833 396.044708,408.633911 396.936279,407.023132 
z"/>
<path fill="#5AA9BA" opacity="1.000000" stroke="none" 
	d="
M227.840759,235.955002 
	C231.419724,235.939728 234.758682,235.982025 238.552460,236.086090 
	C235.254578,236.284760 231.501846,236.421646 227.432251,236.330566 
	C227.115387,236.102615 227.600754,236.012573 227.840759,235.955002 
z"/>
</svg>